<?xml version="1.0" encoding="UTF-8"?>
<svg width="752pt" height="752pt" version="1.1" viewBox="0 0 752 752" xmlns="http://www.w3.org/2000/svg">
 <g>
  <path d="m376 0c-49.375 0-98.27 9.7266-143.89 28.621-45.621 18.895-87.07 46.59-121.98 81.508-34.918 34.914-62.613 76.363-81.508 121.98-18.895 45.617-28.621 94.512-28.621 143.89 0 99.723 39.617 195.36 110.13 265.87 70.516 70.516 166.15 110.13 265.87 110.13 99.723 0 195.36-39.617 265.87-110.13 70.512-70.512 110.13-166.15 110.13-265.87 0-99.719-39.613-195.36-110.12-265.87-70.516-70.516-166.15-110.13-265.88-110.13zm0 42.465c43.316 0 86.207 8.625 126.23 25.387 40.02 16.762 76.379 41.332 107.01 72.305s54.926 67.738 71.5 108.21c16.578 40.465 25.105 83.84 25.105 127.64 0 88.461-34.75 173.3-96.605 235.84-61.859 62.551-145.75 97.691-233.23 97.691-43.312 0-86.207-8.625-126.22-25.387-40.02-16.762-76.383-41.332-107.01-72.301-30.629-30.973-54.926-67.742-71.504-108.21-16.574-40.469-25.105-83.84-25.105-127.64s8.5312-87.172 25.105-127.64c16.578-40.469 40.871-77.238 71.5-108.21 30.629-30.969 66.992-55.539 107.01-72.301 40.02-16.762 82.914-25.387 126.23-25.387z" fill="#ff001b"/>
  <path d="m247.56 171.59c4.0859 0 7.3984-3.3125 7.3984-7.3984v-16.652c0-4.0859-3.3125-7.3984-7.3984-7.3984-4.0859 0-7.3984 3.3125-7.3984 7.3984v16.648c-0.003906 4.0898 3.3086 7.4023 7.3984 7.4023z"/>
  <path d="m282.71 181.51c1.8945 0 3.7891-0.72266 5.2305-2.168l11.773-11.773c2.8906-2.8906 2.8906-7.5742 0-10.465-2.8906-2.8906-7.5742-2.8906-10.465 0l-11.773 11.773c-2.8906 2.8906-2.8906 7.5742 0 10.465 1.4453 1.4453 3.3398 2.168 5.2344 2.168z"/>
  <path d="m207.18 179.34c1.4453 1.4453 3.3398 2.168 5.2305 2.168 1.8945 0 3.7891-0.72266 5.2305-2.168 2.8906-2.8906 2.8906-7.5742 0-10.465l-11.77-11.773c-2.8906-2.8906-7.5742-2.8906-10.465 0-2.8906 2.8906-2.8906 7.5742 0 10.465z"/>
  <path d="m504.45 171.59c4.0859 0 7.3984-3.3125 7.3984-7.3984v-16.652c0-4.0859-3.3125-7.3984-7.3984-7.3984-4.0859 0-7.3984 3.3125-7.3984 7.3984v16.648c0 4.0898 3.3125 7.4023 7.3984 7.4023z"/>
  <path d="m539.59 181.51c1.8945 0 3.7891-0.72266 5.2305-2.168l11.773-11.773c2.8906-2.8906 2.8906-7.5742 0-10.465-2.8906-2.8906-7.5742-2.8906-10.465 0l-11.773 11.773c-2.8906 2.8906-2.8906 7.5742 0 10.465 1.4453 1.4453 3.3398 2.168 5.2344 2.168z"/>
  <path d="m464.06 179.34c1.4453 1.4453 3.3398 2.168 5.2305 2.168 1.8945 0 3.7891-0.72266 5.2305-2.168 2.8906-2.8906 2.8906-7.5742 0-10.465l-11.773-11.773c-2.8906-2.8906-7.5742-2.8906-10.465 0-2.8906 2.8906-2.8906 7.5742 0 10.465z"/>
  <path d="m604.47 384.15c4.0859 0 7.3984-3.3125 7.3984-7.3984v-88.797c0-4.0859-3.3125-7.3984-7.3984-7.3984h-77.824v-22.953c8.1602 0 14.801-6.6406 14.801-14.801v-22.195c0-20.402-16.598-37-37-37-20.402 0-37 16.598-37 37v22.199c0 8.1602 6.6406 14.801 14.801 14.801v22.949l-212.49-0.003906v-22.949c8.1602 0 14.801-6.6406 14.801-14.801l-0.003906-22.195c0-20.402-16.598-37-37-37-20.402 0-37 16.598-37 37v22.199c0 8.1602 6.6406 14.801 14.801 14.801v22.949l-77.82-0.003906c-4.0859 0-7.3984 3.3125-7.3984 7.3984v88.797c0 4.0859 3.3125 7.3984 7.3984 7.3984h77.824v26.078h-77.824c-4.0859 0-7.3984 3.3125-7.3984 7.3984v88.797c0 4.0859 3.3125 7.3984 7.3984 7.3984h77.824v83.246h-16.188c-4.0859 0-7.3984 3.3125-7.3984 7.3984 0 4.0859 3.3125 7.3984 7.3984 7.3984h76.77c4.0859 0 7.3984-3.3125 7.3984-7.3984 0-4.0859-3.3125-7.3984-7.3984-7.3984h-16.188v-83.246h212.49v83.246h-16.188c-4.0859 0-7.3984 3.3125-7.3984 7.3984 0 4.0859 3.3125 7.3984 7.3984 7.3984h76.77c4.0859 0 7.3984-3.3125 7.3984-7.3984 0-4.0859-3.3125-7.3984-7.3984-7.3984h-16.188v-83.246h77.832c4.0859 0 7.3984-3.3125 7.3984-7.3984v-88.797c0-4.0859-3.3125-7.3984-7.3984-7.3984h-77.824v-26.074zm-54.305-14.801 46.902-46.902v46.902zm46.902-67.832-67.832 67.832h-59.352l73.996-73.996h53.188zm-207.46 197.5 73.996-73.996h59.352l-73.996 73.996zm-80.277 0 73.996-73.996h59.352l-73.996 73.996zm-80.277 0 73.996-73.996h59.352l-73.996 73.996zm40.707-88.793v-26.074h212.49v26.074zm92.637-114.87-73.996 73.996h-59.348l73.996-73.996zm80.281 0-73.996 73.996h-59.352l73.996-73.996zm80.277 0-73.996 73.996h-59.352l73.996-73.996zm-40.707-74.746c0-12.242 9.957-22.199 22.199-22.199 12.242 0 22.199 9.957 22.199 22.199l0.007813 22.199h-0.007813-44.398zm14.801 36.996h14.801v22.949h-14.801zm-271.69-36.996c0-12.242 9.957-22.199 22.199-22.199 12.242 0 22.199 9.957 22.199 22.199l0.007813 22.199h-0.007813-44.398zm14.797 36.996h14.801v22.949h-14.801zm-38.316 37.75-46.906 46.902v-46.902zm-46.906 67.832 67.832-67.832h59.352l-73.996 73.996h-53.188zm85.223 20.965h14.801v26.074h-14.801zm-38.316 40.871-46.906 46.902v-46.902zm-46.906 67.832 67.832-67.832h59.352l-73.996 73.996h-53.188zm100.02 104.21h-14.801v-83.246h14.801zm256.89 0h-14.801v-83.246h14.801zm38.32-98.047 46.902-46.902v46.902zm46.902-67.828-67.832 67.828h-59.352l73.996-73.996h53.188zm-85.223-20.965h-14.801v-26.074h14.801z"/>
 </g>
</svg>
